<!DOCTYPE svg PUBLIC "-//W3C//DTD SVG 1.1//EN" "http://www.w3.org/Graphics/SVG/1.1/DTD/svg11.dtd">
<!-- Uploaded to: SVG Repo, www.svgrepo.com, Transformed by: SVG Repo Mixer Tools -->
<svg version="1.1" id="Layer_1" xmlns="http://www.w3.org/2000/svg" xmlns:xlink="http://www.w3.org/1999/xlink" viewBox="-51.2 -51.2 614.40 614.40" xml:space="preserve" width="256px" height="256px" fill="#000000">
<g id="SVGRepo_bgCarrier" stroke-width="0">
<rect x="-51.2" y="-51.2" width="614.40" height="614.40" rx="0" fill="#EFEFEF" strokewidth="0"/>
</g>
<g id="SVGRepo_tracerCarrier" stroke-linecap="round" stroke-linejoin="round"/>
<g id="SVGRepo_iconCarrier"> <circle style="fill:#EFEFEF;" cx="256" cy="256" r="256"/> <path style="fill:#285ff4;" d="M448,155.04v-24.56c0-12.96-10.56-23.52-23.52-23.52H87.44c-12.96,0-23.52,10.56-23.52,23.52v24.56 H448z"/> <g> <circle style="fill:#FFFFFF;" cx="97.12" cy="131.04" r="6.72"/> <circle style="fill:#FFFFFF;" cx="117.2" cy="131.04" r="6.72"/> <circle style="fill:#FFFFFF;" cx="137.28" cy="131.04" r="6.72"/> <path style="fill:#FFFFFF;" d="M388.24,142.72H204.08c-6.48,0-11.76-5.28-11.76-11.76l0,0c0-6.48,5.28-11.76,11.76-11.76h184.16 c6.48,0,11.76,5.28,11.76,11.76l0,0C400,137.44,394.64,142.72,388.24,142.72z"/> <rect x="64" y="154.96" style="fill:#FFFFFF;" width="384" height="232"/> </g> <g> <rect x="253.04" y="247.36" style="fill:#64c466;" width="5.52" height="20.88"/> <polygon style="fill:#64c466;" points="190,298.16 184.56,298.16 184.56,267.04 327.04,267.04 327.04,297.28 321.52,297.28 321.52,272.56 190,272.56 "/> </g> <g> <rect x="220.16" y="199.52" style="fill:#f7ce46;" width="71.28" height="49.36"/> <rect x="151.76" y="292.64" style="fill:#f7ce46;" width="71.28" height="49.36"/> <rect x="288.8" y="292.64" style="fill:#f7ce46;" width="71.28" height="49.36"/> </g> </g>
</svg>