<!DOCTYPE svg PUBLIC "-//W3C//DTD SVG 1.1//EN" "http://www.w3.org/Graphics/SVG/1.1/DTD/svg11.dtd">
<!-- Uploaded to: SVG Repo, www.svgrepo.com, Transformed by: SVG Repo Mixer Tools -->
<svg height="256px" width="256px" version="1.1" id="Layer_1" xmlns="http://www.w3.org/2000/svg" xmlns:xlink="http://www.w3.org/1999/xlink" viewBox="-51.2 -51.2 614.40 614.40" xml:space="preserve" fill="#000000">
<g id="SVGRepo_bgCarrier" stroke-width="0">
<rect x="-51.2" y="-51.2" width="614.40" height="614.40" rx="0" fill="#ffffff" strokewidth="0"/>
</g>
<g id="SVGRepo_tracerCarrier" stroke-linecap="round" stroke-linejoin="round"/>
<g id="SVGRepo_iconCarrier"> <g transform="translate(1 1)"> <path style="fill:#FFDD09;" d="M432.898,380.831c26.034-39.919,34.712-76.366,34.712-130.169 c0-134.508-97.193-242.983-216.949-242.983S33.712,116.153,33.712,250.661s97.193,242.983,216.949,242.983 c7.81,0,45.125-7.81,52.068-8.678l43.39-12.149L432.898,380.831z"/> <path style="fill:#FFFFFF;" d="M7.678,250.661c0,134.508,108.475,242.983,242.983,242.983 c-119.756,0-216.949-108.475-216.949-242.983S130.905,7.678,250.661,7.678C116.153,7.678,7.678,116.153,7.678,250.661"/> <path style="fill:#FD9808;" d="M250.661,7.678c119.756,0,216.949,108.475,216.949,242.983c0,45.993-11.281,88.515-31.241,124.963 l10.414,18.224c29.505-39.919,46.861-89.383,46.861-143.186C493.644,116.153,385.169,7.678,250.661,7.678"/> <g> <path style="fill:#54C9FD;" d="M490.173,511c-2.603,0-4.339-0.868-6.075-2.603l-57.275-59.878c-3.471-3.471-3.471-8.678,0-12.149 c3.471-3.471,8.678-3.471,12.149,0l57.275,59.878c3.471,3.471,3.471,8.678,0,12.149C494.512,510.132,492.776,511,490.173,511z"/> <path style="fill:#54C9FD;" d="M472.817,379.095c0,46.861-38.183,85.044-85.044,85.044s-85.044-38.183-85.044-85.044 s38.183-85.044,85.044-85.044S472.817,332.234,472.817,379.095"/> </g> <path d="M387.773,472.817c-52.068,0-93.722-41.654-93.722-93.722s41.654-93.722,93.722-93.722s93.722,41.654,93.722,93.722 S438.973,472.817,387.773,472.817z M387.773,302.729c-42.522,0-76.366,34.712-76.366,76.366s33.844,76.366,76.366,76.366 s76.366-33.844,76.366-76.366S429.427,302.729,387.773,302.729z"/> <path d="M502.322,511c-2.603,0-4.339-0.868-6.075-2.603l-57.275-59.878c-3.471-3.471-3.471-8.678,0-12.149 c3.471-3.471,8.678-3.471,12.149,0l57.275,59.878c3.471,3.471,3.471,8.678,0,12.149C506.661,510.132,504.058,511,502.322,511z"/> <path d="M250.661,502.322c-5.207,0-8.678-3.471-8.678-8.678V7.678c0-5.207,3.471-8.678,8.678-8.678 c5.207,0,8.678,3.471,8.678,8.678v485.966C259.339,498.851,255.868,502.322,250.661,502.322z"/> <path d="M250.661,502.322c-0.868,0-2.603,0-3.471,0h-5.207l-2.603-1.736c-75.498-61.614-118.888-152.732-118.888-249.925 S163.881,62.349,239.38,0.736L241.983-1h5.207c0.868,0,2.603,0,3.471,0c5.207,0,8.678,3.471,8.678,8.678s-3.471,8.678-8.678,8.678 c-0.868,0-1.736,0-2.603,0c-70.292,58.142-110.21,143.186-110.21,234.305s39.919,176.163,110.21,234.305c0.868,0,1.736,0,2.603,0 c5.207,0,8.678,3.471,8.678,8.678S255.868,502.322,250.661,502.322z"/> <path d="M250.661,146.525c-65.085,0-127.566-19.092-181.369-55.539c-3.471-3.471-4.339-8.678-1.736-12.149 c2.603-4.339,7.81-5.207,12.149-2.603c50.332,34.712,110.21,52.936,170.956,52.936s120.624-18.224,170.956-52.936 c4.339-2.603,9.546-1.736,12.149,2.603s1.736,9.546-2.603,12.149C378.227,127.434,315.746,146.525,250.661,146.525z"/> <path d="M69.292,421.617c-2.603,0-5.207-0.868-6.942-3.471c-2.603-3.471-1.736-9.546,1.736-12.149 c55.539-39.051,119.756-59.878,186.576-59.878c5.207,0,8.678,3.471,8.678,8.678c0,5.207-3.471,8.678-8.678,8.678 c-63.349,0-124.095,19.092-176.163,56.407C72.763,420.749,71.027,421.617,69.292,421.617z"/> <path d="M372.153,259.339c-5.207,0-8.678-3.471-8.678-8.678c0-91.119-39.919-176.163-110.21-234.305c-0.868,0-1.736,0-2.603,0 c-5.207,0-8.678-3.471-8.678-8.678S245.454-1,250.661-1c0.868,0,2.603,0,3.471,0h5.207l2.603,1.736 c75.498,61.614,118.888,152.732,118.888,249.925C380.831,255.868,377.359,259.339,372.153,259.339z"/> <path d="M493.644,259.339H7.678c-5.207,0-8.678-3.471-8.678-8.678s3.471-8.678,8.678-8.678h485.966 c5.207,0,8.678,3.471,8.678,8.678S498.851,259.339,493.644,259.339z"/> <path d="M250.661,502.322C111.814,502.322-1,389.508-1,250.661S111.814-1,250.661-1s251.661,112.814,251.661,251.661 c0,38.183-8.678,75.498-25.166,109.342l-9.546,20.827l-6.075-21.695c-9.546-32.976-39.051-55.539-73.763-55.539 c-42.522-0.868-76.366,33.844-76.366,75.498c0,35.58,25.166,66.82,60.746,74.631l22.563,4.339l-19.959,11.281 C336.573,491.041,294.051,502.322,250.661,502.322z M250.661,16.356c-129.302,0-234.305,105.003-234.305,234.305 s105.003,234.305,234.305,234.305c33.844,0,66.82-6.942,97.193-20.827c-32.108-15.62-53.803-48.597-53.803-85.044 c0-52.068,41.654-93.722,93.722-93.722c34.712,0,65.953,19.092,81.573,48.597c10.414-26.902,15.62-54.671,15.62-83.308 C484.966,121.359,379.963,16.356,250.661,16.356z"/> </g> </g>
</svg>